HIERARCHY
ROOT Hips
{
   OFFSET 0.00000 0.00000 0.00000
   CHANNELS 6 Xposition Yposition Zposition Zrotation Xrotation Yrotation
   JOINT RightUpLeg
   {
      OFFSET -8.945800 -8.667070 0.101652
      CHANNELS 3 Zrotation Xrotation Yrotation
      JOINT RightLeg
      {
         OFFSET 0.000000 -44.422697 1.372700
         CHANNELS 3 Zrotation Xrotation Yrotation
         JOINT RightFoot
         {
            OFFSET 0.253549 -42.092399 -1.460590
            CHANNELS 3 Zrotation Xrotation Yrotation
            JOINT RightToes
            {
               OFFSET 0.040000 -4.415090 8.499099
               CHANNELS 3 Zrotation Xrotation Yrotation
               End Site
               {
                  OFFSET -0.080000 -0.137448 9.779790
               }
            }
         }
      }
   }
   JOINT Spine
   {
      OFFSET 0.000000 11.890501 0.000000
      CHANNELS 3 Zrotation Xrotation Yrotation
      JOINT Spine1
      {
         OFFSET 0.000000 25.657401 0.127663
         CHANNELS 3 Zrotation Xrotation Yrotation
         JOINT HEad
         {
            OFFSET 0.000000 8.734161 0.011341
            CHANNELS 3 Zrotation Xrotation Yrotation
            End Site
            {
               OFFSET -0.290000 12.774200 2.513950
            }
         }
         JOINT LeftShoulder1
         {
            OFFSET 8.990000 -0.362252 -0.220000
            CHANNELS 3 Zrotation Xrotation Yrotation
            JOINT LeftArm
            {
               OFFSET 10.282700 -0.003380 0.322123
               CHANNELS 3 Zrotation Xrotation Yrotation
               JOINT LeftForeArm
               {
                  OFFSET 32.766900 0.099144 -1.424340
                  CHANNELS 3 Zrotation Xrotation Yrotation
                  JOINT LeftHand
                  {
                     OFFSET 27.564301 0.085362 1.022160
                     CHANNELS 3 Zrotation Xrotation Yrotation
                     End Site
                     {
                        OFFSET 16.744301 -0.600000 1.502910
                     }
                  }
               }
            }
         }
         JOINT RightShoulder
         {
            OFFSET -8.990000 -0.362252 -0.220000
            CHANNELS 3 Zrotation Xrotation Yrotation
            JOINT RightArm
            {
               OFFSET -10.282700 -0.003380 0.322123
               CHANNELS 3 Zrotation Xrotation Yrotation
               JOINT RightForeArm
               {
                  OFFSET -32.897098 0.099144 -1.424340
                  CHANNELS 3 Zrotation Xrotation Yrotation
                  JOINT RightHand
                  {
                     OFFSET -27.492101 0.085362 1.022160
                     CHANNELS 3 Zrotation Xrotation Yrotation
                     End Site
                     {
                        OFFSET -16.631201 -0.600000 1.502910
                     }
                  }
               }
            }
         }
      }
   }
   JOINT LeftUpLeg
   {
      OFFSET 8.945800 -8.667070 0.101652
      CHANNELS 3 Zrotation Xrotation Yrotation
      JOINT LeftLeg
      {
         OFFSET 0.000000 -44.422697 1.372700
         CHANNELS 3 Zrotation Xrotation Yrotation
         JOINT LeftFoot
         {
            OFFSET -0.253549 -42.092399 -1.460590
            CHANNELS 3 Zrotation Xrotation Yrotation
            JOINT LeftToes
            {
               OFFSET -0.040000 -4.415090 8.499099
               CHANNELS 3 Zrotation Xrotation Yrotation
               End Site
               {
                  OFFSET 0.080000 -0.047448 9.779790
               }
            }
         }
      }
   }
}
MOTION
Frames: 18
Frame Time: 0.016667
-403.686479 95.231532 -41.400203 28.864448 -25.482367 49.466648 -3.606444 12.591456 -3.970532 8.307183 29.716702 26.038489 -53.601911 28.130658 16.221404 13.084103 -2.317476 -52.118411 -18.959610 49.306114 153.563416 15.091843 -17.576440 -144.788891 -8.792830 29.260855 -0.329209 22.422135 98.365885 4.056031 -149.601934 64.459357 -163.841990 -50.563522 24.809781 -10.554042 -71.191997 -36.289167 -47.306402 -36.120062 49.549078 84.781069 125.158190 90.451533 177.230418 7.396753 169.102670 61.254557 0.065442 -24.656076 42.170329 13.096031 8.388597 -33.622935 -21.795497 11.517436 89.246838 3.861848 22.191558 9.183987 -9.575728 -17.044165 -11.142468
-403.742937 95.328682 -41.206393 29.560809 -25.215650 50.357390 -3.328030 12.677856 -5.359346 6.206190 30.524553 28.496948 -53.390325 28.832943 16.736062 13.104849 -1.875997 -51.766656 -17.297167 46.793257 156.137346 15.354443 -17.623363 -145.727345 -11.332867 32.123469 -0.818510 21.582150 87.834874 6.022664 -143.739719 41.586642 -161.312648 -43.483303 19.233891 -21.890934 -70.928270 -36.447583 -52.760643 -35.047671 54.166142 84.955088 124.284294 96.006375 177.730360 9.083969 177.412688 64.621861 -2.985518 -27.665671 43.347908 12.525760 8.805286 -36.561504 -21.629220 10.903416 88.078978 1.228853 22.001303 10.459951 -9.164056 -15.187098 -11.825765
-403.745264 95.526236 -41.022624 28.709717 -24.206330 51.270330 -2.962510 11.744841 -6.389014 5.951278 30.807387 28.695315 -53.604090 29.267145 16.410216 13.033928 -1.887674 -52.172690 -16.171834 45.868344 157.564268 14.057345 -18.011771 -147.705709 -13.139717 34.394835 -1.777705 20.586807 76.020204 8.069967 -135.562917 19.075672 -155.545797 -34.845112 11.219253 -32.423608 -69.277181 -37.346528 -58.819663 -33.966193 58.759366 85.227790 122.614914 100.839205 176.808107 9.803260 185.697093 67.451765 -7.002223 -30.270753 43.794821 11.670702 8.107703 -39.298668 -20.296817 10.051534 87.259437 -1.129104 20.949466 12.247359 -8.863571 -14.184803 -12.222200
-403.588670 95.693511 -40.826010 27.956818 -23.662338 51.382103 -3.362623 10.724726 -5.861960 6.981678 31.152944 27.643177 -52.862905 29.572329 16.628691 13.008305 -1.827788 -52.225208 -15.179322 45.736388 159.203445 11.395529 -17.787766 -150.361000 -14.821355 36.004072 -2.640416 19.557159 64.546982 9.353580 -123.498795 -2.456682 -146.778101 -25.663095 2.280669 -41.621571 -67.097559 -38.594790 -65.242855 -32.177571 61.597720 85.060089 119.980988 106.036542 176.807711 11.631066 193.737523 71.997188 -12.006311 -34.647425 43.904097 11.539261 7.521428 -41.569757 -20.052411 9.427796 86.743491 -3.439345 20.538234 13.940185 -8.632522 -13.125833 -12.683905
-403.371233 95.860375 -40.670218 27.677359 -22.958853 51.900313 -4.107796 10.247952 -4.067770 8.697169 31.057594 25.059879 -52.443292 29.607999 16.534291 12.943477 -1.872519 -52.389159 -14.050063 46.544594 161.030712 8.946565 -16.808749 -153.623741 -16.607772 36.896354 -3.379493 18.969879 54.996222 9.393551 -106.635905 -21.335431 -134.357976 -16.524492 -7.141252 -47.955035 -64.391506 -40.785488 -70.910300 -30.045145 63.753279 83.375969 117.436428 110.694103 178.243608 13.460597 202.185743 76.755583 -16.331076 -37.435512 42.787672 11.591024 7.104920 -43.584755 -20.589551 8.525031 86.200928 -5.688622 20.085785 15.362911 -8.389437 -12.291971 -13.368487
-403.130716 95.984457 -40.573396 28.000350 -22.405683 53.326603 -4.882979 10.347623 -1.354026 11.127838 30.788471 21.125393 -52.247693 29.624515 16.221751 12.885766 -1.929203 -52.662114 -14.325676 47.499857 162.409085 6.725505 -14.815761 -158.440513 -18.706937 37.339524 -3.961424 17.919392 49.565757 8.180377 -86.997492 -36.660405 -118.184020 -8.220484 -16.202056 -50.823588 -61.578629 -43.609173 -75.625139 -27.627984 65.155456 79.363185 114.054481 115.636455 181.080705 17.432219 210.498644 84.813976 -20.555745 -40.504460 42.227037 12.093748 6.888350 -45.251270 -21.966939 7.177218 85.669171 -7.973646 19.503940 16.540661 -8.185568 -11.821662 -14.136762
-402.844576 96.029910 -40.525002 28.161008 -21.845245 53.819807 -5.641359 10.154728 1.236588 13.193679 30.520311 17.537638 -51.942076 29.526614 15.965203 12.755677 -2.022986 -52.899494 -13.485758 48.012285 163.985670 5.762897 -13.845841 -162.276129 -20.884091 37.370021 -4.453294 17.403657 47.208656 3.987977 -65.189313 -46.435820 -100.407742 -0.782300 -24.698751 -49.751060 -58.894993 -46.960450 -79.363526 -24.331161 65.892495 75.939464 111.587539 120.638380 183.700547 20.317846 218.181486 91.535538 -24.289339 -42.625281 39.850093 12.927924 7.348513 -47.005867 -22.795118 5.220009 84.972457 -10.193843 19.011717 17.285558 -7.897589 -11.677616 -15.305453
-402.498049 95.939311 -40.471916 28.378642 -21.778642 53.909836 -6.099531 10.158939 3.676561 14.972050 30.239932 14.370602 -51.647927 29.338890 15.796001 12.558136 -2.128259 -53.070765 -11.573625 47.524456 165.951044 5.380484 -13.755763 -165.188057 -23.120139 37.072757 -4.859043 17.325729 47.923175 -1.661200 -42.792607 -52.080534 -82.136208 5.492405 -31.806422 -45.823077 -56.724632 -50.378318 -81.822395 -20.662220 66.085844 72.698928 109.641823 125.874704 186.709382 25.058122 223.702602 97.168020 -27.785973 -44.707724 37.218254 13.591629 7.888530 -48.457214 -23.209685 3.795789 84.889662 -12.507439 18.435695 18.360107 -7.897257 -11.701433 -15.964420
-402.143472 95.760811 -40.432052 29.396151 -22.182366 54.602557 -6.481514 11.155742 5.701382 16.455705 29.985934 11.449578 -51.329077 29.233981 15.639610 12.359602 -2.210072 -53.269113 -11.489437 48.287026 168.300055 5.063253 -13.230445 -168.116036 -25.567246 36.285312 -5.142473 16.425797 51.383814 -7.967320 -22.372344 -57.154610 -63.280419 11.127792 -37.131821 -42.032766 -55.688889 -53.319834 -82.516970 -16.100272 65.976322 69.814389 107.957062 131.369400 189.450883 31.187067 227.895286 105.510857 -31.394001 -46.747249 35.826528 14.205285 8.969291 -49.696491 -23.866634 2.914741 85.036497 -14.893516 17.516773 19.463787 -8.048974 -11.581138 -16.362550
-401.780618 95.525721 -40.404209 29.801082 -22.487360 55.353226 -6.508304 11.859482 7.221512 17.729921 29.459337 8.797369 -51.073829 28.977965 15.340449 12.085651 -2.373289 -53.535176 -11.546211 48.861544 170.668805 4.576773 -12.803777 -170.480716 -28.235044 35.079131 -5.297203 17.071680 56.564399 -13.378859 -2.730427 -60.059513 -45.376908 16.228560 -40.833958 -36.576776 -55.591658 -55.565252 -82.277538 -11.874321 65.482376 65.933011 107.414806 136.182825 192.779262 36.647756 231.633544 112.611323 -34.462703 -48.240004 33.277252 14.901584 9.548007 -50.815931 -24.056572 2.022381 85.164802 -17.411359 15.772855 20.339750 -8.324448 -11.757686 -16.671092
-401.446069 95.270785 -40.425295 30.316355 -22.976154 57.275548 -6.114437 12.722112 8.326251 18.881920 28.988897 6.417907 -50.701741 28.967225 15.265478 11.808924 -2.515065 -53.752831 -12.572080 49.371947 173.699005 4.630716 -11.947283 -172.102913 -31.797877 33.119222 -5.174710 19.096912 64.068165 -17.900242 16.093563 -61.224463 -28.283836 20.474394 -41.982704 -30.567258 -57.104883 -56.618498 -80.952830 -7.525763 65.184511 61.686129 107.931264 140.447213 196.550127 42.304949 234.606753 120.308154 -37.289305 -49.153347 30.819282 16.014342 9.830650 -52.085865 -24.374577 1.612366 85.150070 -19.521195 14.746074 21.140784 -8.238237 -11.616134 -17.411385
-401.144098 95.030669 -40.363573 30.326750 -22.889354 57.651947 -6.358289 12.771848 9.269590 19.690599 28.426464 4.438545 -50.281906 28.896881 15.395064 11.462341 -2.671231 -53.767102 -13.077500 50.424251 175.532488 3.678587 -11.512157 -174.730391 -33.974816 31.777441 -5.276809 20.665784 70.548717 -21.893297 32.044522 -63.128604 -12.921228 24.991476 -43.741010 -24.670905 -58.223251 -57.183720 -81.590366 -3.613603 62.915557 57.366069 107.600717 144.256696 200.149241 47.940442 236.834788 127.298607 -39.682764 -49.851570 27.918723 16.492170 9.599526 -53.297820 -24.970612 1.529333 85.153259 -21.247031 14.277858 22.060399 -7.843928 -11.213987 -18.369331
-400.920709 94.803389 -40.308265 30.814323 -22.757000 58.491466 -6.772070 13.197781 9.951972 20.486130 28.164592 2.684950 -49.969483 28.617693 15.336136 11.021685 -2.937772 -53.840920 -13.478246 51.367520 177.364454 3.106998 -11.557252 -177.502901 -35.244681 30.833496 -5.496741 21.747411 77.486160 -25.315435 45.921827 -64.428724 1.217031 28.559338 -44.622637 -21.003663 -59.205309 -56.499666 -85.967336 0.516900 60.089566 53.488472 107.474434 147.845496 204.079796 53.613747 238.041573 134.413109 -41.857141 -50.376282 25.098071 16.833247 9.646184 -54.177689 -25.420217 1.283511 85.367686 -22.989956 13.693020 23.005885 -7.534653 -11.126276 -19.305296
-400.736612 94.629382 -40.222029 31.129752 -22.313074 58.559467 -7.501043 13.331147 10.478974 20.992347 27.943856 1.192461 -49.717145 28.106777 15.193254 10.526472 -3.272472 -53.868568 -13.276060 52.553641 178.604160 2.486649 -11.931635 -180.333796 -36.206894 30.177374 -5.709745 23.829678 83.746698 -28.101376 58.882747 -65.493373 13.411397 31.504456 -45.265217 -17.745943 -60.571122 -56.116124 -88.248476 4.418043 56.439711 50.028810 107.211424 150.925748 208.000762 59.131693 238.966244 140.918072 -43.733189 -50.786374 22.107786 16.779483 9.624366 -54.775324 -25.847599 0.987998 85.771706 -24.783044 13.078721 24.026044 -7.293157 -11.291305 -20.160292
-400.550684 94.498509 -40.135712 31.164282 -21.850516 58.964818 -7.950000 13.319098 10.807514 21.344925 27.719816 -0.068982 -49.412232 27.512554 15.101277 10.048633 -3.599134 -53.834236 -13.260961 53.345990 179.841135 1.883782 -12.306129 -183.031161 -37.191333 29.284692 -5.859614 26.176314 89.233457 -30.506323 70.248345 -66.361824 24.135459 33.751083 -45.985164 -14.982657 -62.002886 -55.874806 -89.520865 8.059900 52.528475 47.052111 107.053168 153.498721 212.128450 64.473789 239.461487 147.322208 -45.394571 -51.083480 19.155971 16.843897 9.339492 -55.196173 -26.187401 0.800730 86.350865 -26.638137 12.633294 25.165159 -7.096365 -11.544010 -20.898069
-400.352625 94.404572 -40.046157 31.210826 -21.411718 59.541129 -8.273746 13.390242 10.887822 21.543137 27.498234 -1.206765 -49.028249 26.953788 15.019565 9.656381 -3.852379 -53.804747 -13.370387 53.806335 181.092371 1.307146 -12.714334 -185.661248 -38.102361 28.246428 -5.972072 28.495191 93.752795 -32.760989 80.348460 -67.168114 33.320050 35.463418 -46.716380 -13.048819 -63.537186 -55.558258 -90.143382 11.562559 48.508424 44.717020 107.205270 155.741700 216.441386 69.595892 239.560498 153.569768 -46.941469 -51.505558 16.380342 16.956863 8.880626 -55.728569 -26.466826 0.704969 86.818350 -28.600589 12.277102 26.160909 -6.865462 -11.816805 -21.685564
-400.136446 94.346474 -39.954044 31.081056 -20.951363 60.136414 -8.488202 13.375196 10.788347 21.641279 27.276589 -2.174681 -48.585612 26.345821 14.946515 9.319931 -4.057558 -53.761119 -13.527838 54.144299 182.105015 0.415712 -13.365757 -188.141823 -38.805904 27.120946 -6.081229 30.952638 97.102593 -34.720700 89.093131 -68.238931 41.198171 36.682047 -47.439745 -11.690020 -65.158482 -55.162097 -90.298816 14.753581 44.211231 43.015872 107.483852 157.648648 220.705747 74.416639 239.444275 159.428705 -48.308070 -52.008653 13.625658 17.128958 8.277734 -56.356468 -26.829026 0.669547 87.179804 -30.704187 11.937512 27.019935 -6.628206 -12.169976 -22.506737
-399.889253 94.324463 -39.859290 30.696694 -20.441426 60.439702 -8.662570 13.162560 10.653575 21.632679 27.125963 -2.912469 -48.111979 25.572131 14.853636 8.999690 -4.251645 -53.699005 -13.388889 54.032988 182.456715 -1.170244 -14.660798 -190.413953 -39.126298 26.044387 -6.228793 33.639242 98.770341 -36.437649 96.451888 -69.917033 47.883618 37.559852 -48.437379 -10.444249 -66.892270 -54.918539 -89.865864 17.414609 39.632395 41.950861 107.583635 159.241530 224.700041 78.925786 239.348243 164.857967 -49.497554 -52.660670 10.883505 17.367061 7.646398 -57.215774 -27.133499 0.556798 87.317992 -33.018470 11.594735 27.592574 -6.372508 -12.647777 -23.429417
